<mxfile host="app.diagrams.net" agent="Mozilla/5.0 (Windows NT 10.0; Win64; x64) AppleWebKit/537.36 (KHTML, like Gecko) Chrome/139.0.0.0 Safari/537.36" version="24.8.9">
  <diagram name="Page-1" id="Uiy6hDH_w0l1KL5kOgAJ">
    <mxGraphModel dx="792" dy="1139" grid="1" gridSize="10" guides="1" tooltips="1" connect="1" arrows="1" fold="1" page="1" pageScale="1" pageWidth="827" pageHeight="1169" math="0" shadow="0">
      <root>
        <mxCell id="0" />
        <mxCell id="1" parent="0" />
        <mxCell id="uYcvBRkzWXACLchL1M8Y-2" value="" style="rounded=0;whiteSpace=wrap;html=1;" vertex="1" parent="1">
          <mxGeometry x="230" y="305" width="280" height="475" as="geometry" />
        </mxCell>
        <mxCell id="uYcvBRkzWXACLchL1M8Y-9" style="edgeStyle=orthogonalEdgeStyle;rounded=0;orthogonalLoop=1;jettySize=auto;html=1;entryX=0;entryY=0.5;entryDx=0;entryDy=0;" edge="1" parent="1" source="uYcvBRkzWXACLchL1M8Y-1" target="uYcvBRkzWXACLchL1M8Y-5">
          <mxGeometry relative="1" as="geometry">
            <Array as="points">
              <mxPoint x="250" y="550" />
              <mxPoint x="250" y="365" />
            </Array>
          </mxGeometry>
        </mxCell>
        <mxCell id="uYcvBRkzWXACLchL1M8Y-10" style="edgeStyle=orthogonalEdgeStyle;rounded=0;orthogonalLoop=1;jettySize=auto;html=1;entryX=0;entryY=0.5;entryDx=0;entryDy=0;" edge="1" parent="1" source="uYcvBRkzWXACLchL1M8Y-1" target="uYcvBRkzWXACLchL1M8Y-6">
          <mxGeometry relative="1" as="geometry">
            <Array as="points">
              <mxPoint x="250" y="550" />
              <mxPoint x="250" y="435" />
            </Array>
          </mxGeometry>
        </mxCell>
        <mxCell id="uYcvBRkzWXACLchL1M8Y-11" style="edgeStyle=orthogonalEdgeStyle;rounded=0;orthogonalLoop=1;jettySize=auto;html=1;" edge="1" parent="1" source="uYcvBRkzWXACLchL1M8Y-1" target="uYcvBRkzWXACLchL1M8Y-7">
          <mxGeometry relative="1" as="geometry">
            <Array as="points">
              <mxPoint x="250" y="550" />
              <mxPoint x="250" y="505" />
            </Array>
          </mxGeometry>
        </mxCell>
        <mxCell id="uYcvBRkzWXACLchL1M8Y-12" style="edgeStyle=orthogonalEdgeStyle;rounded=0;orthogonalLoop=1;jettySize=auto;html=1;" edge="1" parent="1" source="uYcvBRkzWXACLchL1M8Y-1" target="uYcvBRkzWXACLchL1M8Y-3">
          <mxGeometry relative="1" as="geometry">
            <Array as="points">
              <mxPoint x="250" y="550" />
              <mxPoint x="250" y="575" />
            </Array>
          </mxGeometry>
        </mxCell>
        <mxCell id="uYcvBRkzWXACLchL1M8Y-13" style="edgeStyle=orthogonalEdgeStyle;rounded=0;orthogonalLoop=1;jettySize=auto;html=1;entryX=0;entryY=0.5;entryDx=0;entryDy=0;" edge="1" parent="1" source="uYcvBRkzWXACLchL1M8Y-1" target="uYcvBRkzWXACLchL1M8Y-4">
          <mxGeometry relative="1" as="geometry">
            <Array as="points">
              <mxPoint x="250" y="550" />
              <mxPoint x="250" y="645" />
            </Array>
          </mxGeometry>
        </mxCell>
        <mxCell id="uYcvBRkzWXACLchL1M8Y-14" style="edgeStyle=orthogonalEdgeStyle;rounded=0;orthogonalLoop=1;jettySize=auto;html=1;entryX=0;entryY=0.5;entryDx=0;entryDy=0;" edge="1" parent="1" source="uYcvBRkzWXACLchL1M8Y-1" target="uYcvBRkzWXACLchL1M8Y-8">
          <mxGeometry relative="1" as="geometry">
            <Array as="points">
              <mxPoint x="250" y="550" />
              <mxPoint x="250" y="715" />
            </Array>
          </mxGeometry>
        </mxCell>
        <mxCell id="uYcvBRkzWXACLchL1M8Y-1" value="player" style="shape=umlActor;verticalLabelPosition=bottom;verticalAlign=top;html=1;outlineConnect=0;" vertex="1" parent="1">
          <mxGeometry x="150" y="512.5" width="30" height="60" as="geometry" />
        </mxCell>
        <mxCell id="uYcvBRkzWXACLchL1M8Y-3" value="Move Piece" style="ellipse;whiteSpace=wrap;html=1;" vertex="1" parent="1">
          <mxGeometry x="324" y="550" width="100" height="50" as="geometry" />
        </mxCell>
        <mxCell id="uYcvBRkzWXACLchL1M8Y-4" value="Revert Move" style="ellipse;whiteSpace=wrap;html=1;" vertex="1" parent="1">
          <mxGeometry x="324" y="620" width="100" height="50" as="geometry" />
        </mxCell>
        <mxCell id="uYcvBRkzWXACLchL1M8Y-5" value="Start Game" style="ellipse;whiteSpace=wrap;html=1;" vertex="1" parent="1">
          <mxGeometry x="324" y="340" width="100" height="50" as="geometry" />
        </mxCell>
        <mxCell id="uYcvBRkzWXACLchL1M8Y-6" value="Pause Game" style="ellipse;whiteSpace=wrap;html=1;" vertex="1" parent="1">
          <mxGeometry x="324" y="410" width="100" height="50" as="geometry" />
        </mxCell>
        <mxCell id="uYcvBRkzWXACLchL1M8Y-7" value="Exit Game" style="ellipse;whiteSpace=wrap;html=1;" vertex="1" parent="1">
          <mxGeometry x="324" y="480" width="100" height="50" as="geometry" />
        </mxCell>
        <mxCell id="uYcvBRkzWXACLchL1M8Y-8" value="Next Move" style="ellipse;whiteSpace=wrap;html=1;" vertex="1" parent="1">
          <mxGeometry x="324" y="690" width="100" height="50" as="geometry" />
        </mxCell>
        <mxCell id="uYcvBRkzWXACLchL1M8Y-15" value="System" style="text;html=1;align=center;verticalAlign=middle;whiteSpace=wrap;rounded=0;" vertex="1" parent="1">
          <mxGeometry x="340" y="270" width="60" height="30" as="geometry" />
        </mxCell>
      </root>
    </mxGraphModel>
  </diagram>
</mxfile>
